<svg width="407" height="407" viewBox="0 0 407 407" fill="none" xmlns="http://www.w3.org/2000/svg">
<rect width="407" height="407" fill="white"/>
<path d="M157.891 97.8266C157.906 87.1155 157.435 76.5758 165.663 68.2598C170.86 62.949 177.985 59.9693 185.415 60.0002C199.304 60.1206 224.383 80.0693 236.557 88.3021L299.148 130.277L352.358 165.94C359.055 170.445 365.762 175.026 372.504 179.528C382.099 185.935 386.921 193.067 387.027 204.911C387.204 224.48 364.075 234.961 349.503 244.715L293.669 282.104L230.135 324.723C220.457 331.223 210.757 338.212 200.963 344.327C189.85 351.265 174.352 350.359 165.513 340.229C157.494 331.28 157.962 322.519 157.894 311.417C149.486 315.747 143.342 322.656 133.394 325.369C116.436 329.993 101.795 319.243 99.1445 302.361C98.4973 298.237 99.5194 293.466 98.2291 289.421C93.5142 291.569 88.7815 293.68 84.0316 295.751C74.9224 299.656 66.0745 302.486 56.4626 298.312C36.8301 289.785 39.0373 272.002 39.1067 254.586C39.2663 214.369 38.7401 174.454 39.397 134.283C39.4506 131.022 40.223 127.945 41.5553 124.99C44.6256 118.107 50.3041 112.724 57.3423 110.028C71.0418 104.902 85.3081 113.407 97.9987 119.095C100.625 114.509 96.5426 103.502 103.925 94.2106C121.655 71.8957 140.076 85.6669 157.891 97.8266Z" fill="#2B2B2B"/>
<path d="M98.2291 289.421C93.5142 291.569 88.7815 293.68 84.0316 295.751C74.9224 299.656 66.0745 302.486 56.4626 298.312C36.8301 289.784 39.0373 272.002 39.1067 254.586C39.2663 214.369 38.7401 174.454 39.397 134.283C39.4506 131.022 40.223 127.945 41.5553 124.99C44.6256 118.107 50.3041 112.724 57.3423 110.028C71.0418 104.902 85.3081 113.407 97.9987 119.094L98.7264 119.271C98.6383 134.65 98.1108 286.539 99.5421 289.002L98.2291 289.421Z" fill="#B1B1B1"/>
<path d="M97.9987 119.095C100.625 114.509 96.5426 103.502 103.925 94.2106C121.655 71.8958 140.076 85.667 157.891 97.8266L157.984 98.3473C157.927 106.832 159.056 137.84 157.488 144.433L157.891 144.755L157.85 229.264C157.852 234.065 158.162 260.583 157.466 264.022L157.004 264.312C158.782 266.852 157.761 304.374 158.016 310.879L157.894 311.417C149.486 315.747 143.342 322.656 133.394 325.369C116.436 329.993 101.795 319.243 99.1445 302.361C98.4973 298.237 99.5194 293.466 98.2291 289.421C93.5142 291.57 88.7815 293.68 84.0316 295.751C74.9224 299.656 66.0745 302.486 56.4626 298.312C36.8301 289.785 39.0373 272.002 39.1067 254.586C39.2663 214.369 38.7401 174.454 39.397 134.283C39.4506 131.022 40.223 127.945 41.5553 124.99C44.6256 118.107 50.3041 112.725 57.3423 110.028C71.0418 104.902 85.3081 113.407 97.9987 119.095Z" fill="#C4C4C4" fill-opacity="0.88"/>
<path d="M157.984 98.3472C163.643 100.797 235.161 148.319 239.361 152.593C228.195 154.769 231.201 167.055 231.491 176.185L231.484 232.324L230.914 232.212C224.22 236.125 205.061 244.018 197.168 247.256C185.205 252.163 169.233 259.82 157.466 264.022C158.163 260.583 157.852 234.065 157.85 229.264L157.892 144.755L157.488 144.433C159.056 137.84 157.927 106.832 157.984 98.3472Z" fill="#939393" fill-opacity="0.64"/>
<path d="M157.004 264.312C158.782 266.852 157.761 304.374 158.016 310.878L157.894 311.417C149.486 315.747 143.342 322.656 133.394 325.368C116.436 329.993 101.795 319.243 99.1445 302.361C98.4973 298.237 99.5193 293.466 98.229 289.421L99.542 289.002C118.751 280.902 137.907 272.672 157.004 264.312Z" fill="#989898"/>
<path d="M97.9985 119.095C100.625 114.509 96.5425 103.502 103.925 94.2106C121.655 71.8958 140.076 85.667 157.891 97.8266L157.984 98.3473C157.927 106.832 159.056 137.84 157.487 144.433C138.778 137.226 117.809 127.089 98.7262 119.271L97.9985 119.095Z" fill="#989898"/>
<path d="M239.361 152.593C260.218 165.625 280.434 180.041 301.044 193.483C305.192 196.188 309.726 199.409 311.763 204.049C311.652 206.7 310.418 208.294 308.405 210.049C304.89 213.116 300.707 215.749 296.758 218.25C278.804 229.624 261.565 242.103 243.63 253.494C241.603 254.782 240.001 255.358 237.74 256.015C228.5 252.442 231.137 240.779 231.484 232.324L231.491 176.185C231.201 167.055 228.194 154.769 239.361 152.593Z" fill="#9F9F9F"/>
<path d="M230.914 232.212L231.485 232.324C231.138 240.779 228.501 252.442 237.741 256.015L238.746 256.695C237.93 257.817 163.549 307.846 158.016 310.878C157.761 304.374 158.782 266.852 157.004 264.312L157.466 264.022C169.233 259.82 185.205 252.163 197.168 247.256C205.061 244.018 224.22 236.125 230.914 232.212Z" fill="#585656"/>
<path d="M157.984 98.3472C163.642 100.797 235.16 148.319 239.361 152.593C228.194 154.769 231.201 167.055 231.491 176.185L231.484 232.324L230.914 232.212C230.496 213.839 230.776 194.497 230.802 176.04C208.907 166.456 179.736 152.924 157.891 144.755L157.487 144.433C159.055 137.84 157.927 106.832 157.984 98.3472Z" fill="#585656"/>
<path d="M230.49 176.185C239.267 180.245 246.236 184.37 249.989 194.396C252.498 201.249 252.34 208.859 249.549 215.591C245.721 224.744 239.002 228.914 230.484 232.324L230.49 176.185Z" fill="#797979"/>
</svg>
