<svg width="407" height="407" viewBox="0 0 407 407" fill="none" xmlns="http://www.w3.org/2000/svg">
<path d="M148.862 97.4837C148.877 86.7726 148.406 76.2329 156.634 67.9169C161.831 62.6061 168.957 59.6264 176.387 59.6573C190.276 59.7777 215.354 79.7264 227.529 87.9592L290.119 129.934L343.329 165.597C350.027 170.102 356.734 174.683 363.476 179.185C373.07 185.592 377.893 192.724 377.999 204.568C378.175 224.137 355.047 234.618 340.474 244.372L284.64 281.761L221.107 324.38C211.428 330.88 201.728 337.869 191.934 343.985C180.822 350.922 165.324 350.016 156.484 339.886C148.465 330.937 148.934 322.176 148.866 311.074C140.457 315.404 134.314 322.313 124.366 325.026C107.407 329.65 92.7663 318.9 90.1162 302.018C89.469 297.894 90.491 293.123 89.2007 289.078C84.4859 291.227 79.7532 293.337 75.0032 295.408C65.8941 299.313 57.0462 302.143 47.4343 297.969C27.8018 289.442 30.0089 271.659 30.0784 254.243C30.238 214.026 29.7118 174.111 30.3687 133.94C30.4223 130.679 31.1947 127.602 32.527 124.647C35.5973 117.764 41.2757 112.382 48.314 109.685C62.0135 104.559 76.2798 113.064 88.9703 118.752C91.5963 114.167 87.5143 103.159 94.8964 93.8677C112.627 71.5528 131.048 85.324 148.862 97.4837Z" fill="white"/>
<path d="M89.2007 289.078C84.4859 291.227 79.7532 293.337 75.0032 295.408C65.8941 299.313 57.0462 302.143 47.4343 297.969C27.8018 289.442 30.0089 271.659 30.0784 254.243C30.238 214.026 29.7118 174.111 30.3687 133.94C30.4223 130.679 31.1947 127.602 32.527 124.647C35.5973 117.764 41.2757 112.381 48.314 109.685C62.0135 104.559 76.2798 113.064 88.9703 118.752L89.698 118.928C89.61 134.307 89.0824 286.196 90.5137 288.66L89.2007 289.078Z" fill="#B1B1B1"/>
<path d="M88.9703 118.752C91.5963 114.167 87.5143 103.159 94.8964 93.8677C112.627 71.5529 131.048 85.3241 148.862 97.4837L148.956 98.0044C148.899 106.49 150.027 137.497 148.459 144.09L148.863 144.412L148.822 228.921C148.824 233.722 149.134 260.24 148.437 263.679L147.976 263.969C149.754 266.509 148.732 304.031 148.988 310.536L148.866 311.074C140.457 315.404 134.314 322.313 124.366 325.026C107.407 329.65 92.7663 318.9 90.1162 302.018C89.469 297.894 90.4911 293.123 89.2007 289.078C84.4859 291.227 79.7532 293.337 75.0032 295.408C65.8941 299.313 57.0462 302.143 47.4343 297.969C27.8018 289.442 30.0089 271.659 30.0784 254.243C30.238 214.026 29.7118 174.111 30.3687 133.94C30.4223 130.679 31.1947 127.602 32.527 124.647C35.5973 117.764 41.2757 112.382 48.314 109.685C62.0135 104.56 76.2798 113.064 88.9703 118.752Z" fill="#B1B1B1" fill-opacity="0.41"/>
<path d="M148.956 98.0043C154.615 100.454 226.132 147.976 230.333 152.25C219.166 154.426 222.173 166.712 222.463 175.842L222.456 231.981L221.886 231.869C215.192 235.782 196.033 243.675 188.139 246.913C176.177 251.82 160.205 259.477 148.438 263.679C149.134 260.24 148.824 233.722 148.822 228.921L148.863 144.412L148.459 144.09C150.028 137.497 148.899 106.489 148.956 98.0043Z" fill="#ECECEC" fill-opacity="0.64"/>
<path d="M147.976 263.969C149.754 266.509 148.732 304.031 148.987 310.536L148.866 311.074C140.457 315.404 134.314 322.313 124.366 325.026C107.407 329.65 92.7662 318.9 90.1162 302.018C89.4689 297.894 90.491 293.123 89.2007 289.078L90.5137 288.66C109.723 280.56 128.878 272.33 147.976 263.969Z" fill="#C5C5C5"/>
<path d="M88.9702 118.752C91.5962 114.167 87.5141 103.159 94.8963 93.8677C112.627 71.5529 131.048 85.3241 148.862 97.4837L148.956 98.0044C148.899 106.49 150.027 137.497 148.459 144.09C129.75 136.883 108.781 126.746 89.6979 118.928L88.9702 118.752Z" fill="#C5C5C5"/>
<path d="M230.332 152.25C251.19 165.282 271.405 179.698 292.016 193.14C296.163 195.845 300.698 199.066 302.735 203.707C302.623 206.357 301.389 207.951 299.377 209.707C295.861 212.773 291.678 215.406 287.73 217.907C269.775 229.281 252.536 241.76 234.602 253.151C232.575 254.439 230.973 255.015 228.712 255.672C219.472 252.099 222.109 240.436 222.456 231.981L222.462 175.842C222.172 166.712 219.166 154.426 230.332 152.25Z" fill="#DEDEDE"/>
<path d="M222.462 175.842C231.651 179.902 238.948 184.027 242.877 194.053C245.504 200.906 245.339 208.516 242.417 215.248C238.408 224.401 231.374 228.571 222.456 231.981L222.462 175.842Z" fill="#B1B1B1" fill-opacity="0.24"/>
<path d="M221.886 231.87L222.456 231.981C222.11 240.436 219.473 252.1 228.712 255.672L229.717 256.352C228.902 257.474 154.521 307.503 148.988 310.536C148.733 304.031 149.754 266.509 147.976 263.969L148.438 263.679C160.205 259.477 176.177 251.82 188.139 246.913C196.033 243.675 215.192 235.782 221.886 231.87Z" fill="#ECECEC"/>
<path d="M148.956 98.0043C154.614 100.454 226.132 147.976 230.332 152.25C219.166 154.426 222.172 166.712 222.462 175.842L222.456 231.981L221.885 231.869C221.468 213.497 221.748 194.154 221.773 175.697C199.879 166.113 170.708 152.582 148.863 144.412L148.459 144.09C150.027 137.497 148.898 106.489 148.956 98.0043Z" fill="#ECECEC"/>
</svg>
